<?xml version="1.0" encoding="utf-8"?>
<!-- Generator: Adobe Illustrator 21.1.0, SVG Export Plug-In . SVG Version: 6.00 Build 0)  -->
<svg version="1.1" id="Layer_1" xmlns="http://www.w3.org/2000/svg" xmlns:xlink="http://www.w3.org/1999/xlink" x="0px" y="0px"
	 viewBox="0 0 841.9 595.3" style="enable-background:new 0 0 841.9 595.3;" xml:space="preserve">
<style type="text/css">
	.st0{fill:#999DAB;}
	.st1{fill:#5C535D;}
	.st2{fill:#DEE066;}
	.st3{fill:#EC95A3;}
	.st4{fill:#FFFFFF;}
</style>
<g>
	<g>
		<polygon class="st0" points="753,90.2 755.7,320.8 755.6,320.7 673.1,148.4 		"/>
		<polygon class="st0" points="759.3,91 757.8,321.8 758,320.9 841.9,141.8 		"/>
	</g>
	<g>
		<rect x="733.7" y="389.9" class="st1" width="6.6" height="115.2"/>
		<rect x="771.1" y="389.9" class="st1" width="6.6" height="115.2"/>
	</g>
	<g>
		<circle class="st2" cx="755.7" cy="324.7" r="85.3"/>
	</g>
	<g>
		<path class="st3" d="M831.6,286.8H678.9c0,0,21.5-48.7,76.8-47.8C812.8,240,831.6,286.8,831.6,286.8z"/>
	</g>
	<polygon class="st1" points="733,304.6 755.7,304.6 778.4,304.6 767,324.3 755.7,343.9 744.3,324.3 	"/>
	<g>
		<circle cx="719.1" cy="287.8" r="8.5"/>
		<circle cx="792.3" cy="287.8" r="8.5"/>
		<polygon class="st4" points="795.9,287.5 792.3,287.4 788.7,287.3 790.5,284.3 792.4,281.2 794.1,284.3 		"/>
		<polygon class="st4" points="722.7,287.4 719.1,287.4 715.5,287.4 717.3,284.3 719.1,281.2 720.9,284.3 		"/>
	</g>
</g>
</svg>
