<?xml version="1.0" encoding="utf-8"?>
<!-- Generator: Adobe Illustrator 21.1.0, SVG Export Plug-In . SVG Version: 6.00 Build 0)  -->
<svg version="1.1" id="Layer_1" xmlns="http://www.w3.org/2000/svg" xmlns:xlink="http://www.w3.org/1999/xlink" x="0px" y="0px"
	 viewBox="0 0 750 750" style="enable-background:new 0 0 750 750;" xml:space="preserve">
<style type="text/css">
	.st0{fill:#7ADDBF;}
	.st1{fill:none;stroke:#7ADDBF;stroke-width:6;stroke-miterlimit:10;}
</style>
<g>
	<path class="st0" d="M375,37c56.4,0,102.3,48.7,102.3,108.5S431.4,253.9,375,253.9l-0.8,0l-1,0c-4.3,0-11-0.2-19.1-2.3
		c-19.9-5-40-18-55-35.7c-12.1-14.2-26.4-37.9-26.4-70.5c0-27.6,10.9-55.2,29.7-75.7C321.9,48.6,347.7,37,375,37 M375,32
		c-60.4,0-107.2,53.9-107.3,113.5c-0.1,58.6,45.2,101,85.2,111c9,2.2,16.3,2.4,20.3,2.4c0.7,0,1.3,0,1.8,0
		c59.2,0,107.3-50.8,107.3-113.5S434.2,32,375,32L375,32z"/>
</g>
<path class="st1" d="M349.2,517.4c174.5-3.8,400.5,33.4,401.9,86.2c1.4,50.8-199.8,116.8-385.6,114.9
	C188.4,716.6-3.3,652.7-1.1,603.6C1.1,553.2,207,520.5,349.2,517.4z"/>
<path class="st1" d="M379.4,261.4c84.9,29.2,264.7,231.9,219.6,299c-68.7,102.1-395.7,101.9-450.8-14.5
	C110.7,466.7,331.1,244.8,379.4,261.4z"/>
</svg>
